<svg width="33" height="32" viewBox="0 0 33 32" fill="none" xmlns="http://www.w3.org/2000/svg">
<path d="M0.0486045 18.1078L0.00453028 26.3705L3.05318 26.3868C4.1758 26.3928 5.09395 24.8365 5.10422 22.9102L5.13089 17.9099L0.0486045 18.1078Z" fill="url(#paint0_linear_2381_169275)"/>
<path d="M0.0954603 9.42422L0.07415 13.4193L3.13546 13.4357C4.26273 13.4417 5.1812 12.533 5.18721 11.4057L5.20569 7.94128L0.0954603 9.42422Z" fill="url(#paint1_linear_2381_169275)"/>
<path d="M14.4742 18.5846C13.9075 18.108 13.9075 18.108 13.2405 16.9747L12.7888 16.0271C12.7938 15.0887 13.5584 14.3322 14.4968 14.3372L15.18 14.3408L17.0453 14.3508L20.1923 14.3676C23.32 14.3843 25.8424 16.9333 25.8258 20.0615C25.8091 23.1892 23.2601 25.7117 20.1318 25.695L16.9849 25.6782L14.4364 25.6646C13.498 25.6591 12.7334 26.4161 12.7284 27.3545L12.751 23.1066C12.756 22.1682 13.5206 21.4117 14.4591 21.4167L17.0075 21.4303L20.1545 21.4471C20.9367 21.4513 21.5737 20.821 21.5779 20.0388C21.582 19.2566 20.9513 18.6196 20.1696 18.6155L14.4742 18.5851L14.4742 18.5846Z" fill="url(#paint2_linear_2381_169275)"/>
<path d="M22.2989 11.5587C22.8706 11.0882 22.8706 11.0882 23.5497 9.962L24.0114 9.01928C24.0165 8.08086 23.26 7.31626 22.3215 7.31125L21.6384 7.30761L19.7731 7.29766L16.6261 7.28087C13.4983 7.26419 10.9489 9.78613 10.9322 12.9144C10.9155 16.0421 11.4691 18.5811 14.5973 18.5978L19.7127 18.6251L20.4867 18.6292L20.4953 17.0309L20.499 16.338L20.5022 15.7318L20.5057 15.0678C20.5107 14.1293 20.5053 15.1255 20.5094 14.3813L19.7353 14.3772L16.5883 14.3604C15.8062 14.3562 15.1759 13.7192 15.1801 12.937C15.1843 12.1548 15.8217 11.5246 16.6034 11.5288L22.2989 11.5592L22.2989 11.5587Z" fill="#008AFF"/>
<path d="M2.12561 11.3856C0.998535 11.3796 0.0802184 12.2888 0.0742064 13.4158L0.10142 8.31396C0.107432 7.18688 1.02575 6.27831 2.15282 6.28432L2.9733 6.2887L5.2136 6.30065L8.99324 6.32081C12.7498 6.34085 15.7793 9.40228 15.7593 13.1594C15.7392 16.9159 12.6778 19.9455 8.92067 19.9254L5.14103 19.9053L2.08026 19.8889C0.953181 19.8824 0.0348639 20.7915 0.0288519 21.9186L0.0560659 16.8167C0.0620778 15.6896 0.980391 14.7811 2.10747 14.7871L5.16825 14.8034L8.94789 14.8236C9.88731 14.8286 10.6524 14.0716 10.6574 13.1322C10.6624 12.1928 9.90487 11.4277 8.96603 11.4227L2.12561 11.3862L2.12561 11.3856Z" fill="url(#paint3_linear_2381_169275)"/>
<path d="M27.1599 6.88116L27.1318 12.1455L26.4943 12.1421L26.5188 7.54609L26.488 7.54592L25.1982 8.39246L25.2016 7.7447L26.5224 6.87776L27.1599 6.88116ZM30.5246 6.89911L30.4965 12.1634L29.859 12.16L29.8836 7.56404L29.8527 7.56387L28.5629 8.41041L28.5664 7.76265L29.8871 6.89571L30.5246 6.89911Z" fill="#008AFF"/>
<defs>
<linearGradient id="paint0_linear_2381_169275" x1="2.54583" y1="26.2625" x2="2.57209" y2="21.3393" gradientUnits="userSpaceOnUse">
<stop stop-color="white"/>
<stop offset="1" stop-color="#B3B3B3"/>
</linearGradient>
<linearGradient id="paint1_linear_2381_169275" x1="2.62595" y1="13.3184" x2="2.63652" y2="11.3384" gradientUnits="userSpaceOnUse">
<stop stop-color="white"/>
<stop offset="1" stop-color="#B3B3B3"/>
</linearGradient>
<linearGradient id="paint2_linear_2381_169275" x1="23.9175" y1="24.9027" x2="25.821" y2="20.9109" gradientUnits="userSpaceOnUse">
<stop stop-color="#00E5FF"/>
<stop offset="0.1689" stop-color="#00C8FF"/>
<stop offset="0.3791" stop-color="#00ACFF"/>
<stop offset="0.5892" stop-color="#0097FF"/>
<stop offset="0.797" stop-color="#008BFF"/>
<stop offset="1" stop-color="#0087FF"/>
</linearGradient>
<linearGradient id="paint3_linear_2381_169275" x1="0.0705791" y1="14.0959" x2="15.7536" y2="14.1795" gradientUnits="userSpaceOnUse">
<stop stop-color="#00E5FF"/>
<stop offset="0.1689" stop-color="#00C8FF"/>
<stop offset="0.3791" stop-color="#00ACFF"/>
<stop offset="0.5892" stop-color="#0097FF"/>
<stop offset="0.797" stop-color="#008BFF"/>
<stop offset="1" stop-color="#0087FF"/>
</linearGradient>
</defs>
</svg>
